<svg xmlns="http://www.w3.org/2000/svg" xmlns:xlink="http://www.w3.org/1999/xlink" width="367.688" height="367.529" viewBox="0 0 367.688 367.529"><defs><style>.a{fill:url(#a);}.b{fill:#141414;opacity:0.3;}.b,.c,.d{fill-rule:evenodd;}.c{fill:url(#b);}.d{fill:url(#c);}</style><linearGradient id="a" x1="0.5" x2="0.5" y2="1" gradientUnits="objectBoundingBox"><stop offset="0" stop-color="#001a43"/><stop offset="0.592" stop-color="#18099f"/><stop offset="1" stop-color="#7013ed"/></linearGradient><linearGradient id="b" x1="0.5" x2="0.5" y2="1" gradientUnits="objectBoundingBox"><stop offset="0" stop-color="#1787f6"/><stop offset="0.53" stop-color="#5629fc"/><stop offset="1" stop-color="#aa00c4"/></linearGradient><linearGradient id="c" y1="0.5" x2="0.899" y2="0.5" gradientUnits="objectBoundingBox"><stop offset="0" stop-color="#003287"/><stop offset="0.53" stop-color="#502bf4"/><stop offset="1" stop-color="#d74fff"/></linearGradient></defs><rect class="a" width="367.481" height="367.482" rx="35" transform="translate(0 0)"/><path class="b" d="M75.352,692.6s58.057-3.56,69.873-22.624c1.418-7.562,31.482-35.929,36.867-50.889C207.615,548.186,74.723,546.7,74.723,546.7l52.064-52.6,181.679,136.85v95.57c0,13.61,2.539,27.588-10.017,40.892-11.262,11.934-26.739,10.555-41.424,10.555H166.642Z" transform="translate(59.013 -410.489)"/><g transform="translate(-486.307 -678.93)"><path class="c" d="M631.962,953.018c-1.869,1.854-8.83,7.379-11.336,8.087l49.417.061,49.412-.061c-7.522-2.113-24.5-21.159-26.959-27.978a41.607,41.607,0,0,0,13.643,4.253l-.214.015c8.907,1.451,17.217,2.23,26.231.372,27.978-5.77,40.332-25.88,40.434-49.294a65.209,65.209,0,0,0-.8-10.908c-2.185-14.834-8.79-30.279-19.046-43.779q-1.328-1.749-2.745-3.5c-9.176-11.977-20.258-22.712-31.716-32.591-15.16-13.8-31.4-23.221-47.517-35.321l-.723-.54-.728.54c-16.112,12.1-32.357,21.526-47.512,35.321-11.463,9.879-22.544,20.614-31.721,32.591q-1.406,1.749-2.745,3.5c-10.251,13.505-16.861,28.95-19.041,43.779a64.64,64.64,0,0,0-.8,10.908c.1,23.415,12.451,43.525,40.433,49.294,4.6.947,15.323,1.782,21.724.249,6.737-.759,11.661-1.849,17.935-4.889-2.312,6.4-10.913,15.206-15.629,19.891Zm51.963-9.3-4.339,4.654a.989.989,0,0,1-.733.321H658.279a.5.5,0,0,1-.463-.3.514.514,0,0,1-.035-.29.483.483,0,0,1,.127-.255l4.333-4.654a1.043,1.043,0,0,1,.336-.239,1,1,0,0,1,.4-.082h20.568a.486.486,0,0,1,.28.076.53.53,0,0,1,.193.219.476.476,0,0,1,.031.291.484.484,0,0,1-.128.259Zm-4.339-9.37L683.915,939a.548.548,0,0,1,.132.259.476.476,0,0,1-.035.28.536.536,0,0,1-.188.224.473.473,0,0,1-.275.082H662.98a1,1,0,0,1-.4-.082,1.042,1.042,0,0,1-.336-.239l-4.333-4.655a.5.5,0,0,1-.092-.545A.545.545,0,0,1,658,934.1a.5.5,0,0,1,.28-.082h20.574a1.069,1.069,0,0,1,.4.082,1.041,1.041,0,0,1,.336.239ZM658.279,931h0a.5.5,0,0,1-.28-.081.482.482,0,0,1-.184-.218.506.506,0,0,1,.092-.545l4.333-4.654a1.12,1.12,0,0,1,.336-.239,1.089,1.089,0,0,1,.4-.082h20.568a.486.486,0,0,1,.28.082.472.472,0,0,1,.193.219.459.459,0,0,1,.031.285.466.466,0,0,1-.128.259l-4.339,4.654a1.041,1.041,0,0,1-.336.239.953.953,0,0,1-.4.081Zm11.763-108.972c20.018,11.545,72.521,52.681,52.269,79.808-16.978,19.438-45.053,13.1-51.545-7.857l-.738-2.266-.713,2.266c-6.493,20.96-34.643,27.2-51.616,7.749C597.462,874.594,650.03,833.571,670.043,822.026Z" transform="translate(0 0)"/><path class="d" d="M587.946,871.17h98.849c-6.635-2.445-19.7-16.164-24.8-23.945a21.706,21.706,0,0,1-2.159-4.023l.02.005V843.2l.02.005c39.6,8.163,48.281-35.692,30.768-59.4,7.252,14.85,4.115,34.094-19.244,37.475a29.035,29.035,0,0,1-33.824-18.939l-.194-.57-.015.056-.02-.056-.188.57a29.037,29.037,0,0,1-33.824,18.939c-23.359-3.381-26.5-22.625-19.244-37.475-17.513,23.706-8.835,67.561,30.768,59.4l.015-.005.005.005.015-.005a21.6,21.6,0,0,1-2.154,4.023c-5.1,7.781-18.17,21.5-24.8,23.945Zm37.66-30.11h0a.474.474,0,0,1-.275-.081.519.519,0,0,1-.189-.219.505.505,0,0,1-.035-.285.483.483,0,0,1,.127-.26l4.334-4.655a1.036,1.036,0,0,1,.336-.239,1,1,0,0,1,.4-.082h20.568a.524.524,0,0,1,.28.077.53.53,0,0,1,.193.219.513.513,0,0,1,.031.29.48.48,0,0,1-.128.26l-4.339,4.655a1.046,1.046,0,0,1-.336.239.968.968,0,0,1-.4.081Zm21.307,3.346,4.328,4.654a.467.467,0,0,1,.127.255.52.52,0,0,1-.03.29.562.562,0,0,1-.189.219.512.512,0,0,1-.275.081H630.306a1.093,1.093,0,0,1-.4-.081,1.043,1.043,0,0,1-.336-.239l-4.334-4.654a.506.506,0,0,1-.092-.545.52.52,0,0,1,.189-.219.474.474,0,0,1,.275-.081h20.568a1.049,1.049,0,0,1,.4.081,1.036,1.036,0,0,1,.336.239Zm4.339,9.37-4.339,4.655a1.132,1.132,0,0,1-.336.239,1.057,1.057,0,0,1-.4.081H625.606a.515.515,0,0,1-.275-.081.505.505,0,0,1-.189-.224.5.5,0,0,1-.035-.285.468.468,0,0,1,.127-.255l4.334-4.655a1.043,1.043,0,0,1,.336-.239,1,1,0,0,1,.4-.081h20.568a.445.445,0,0,1,.28.076.5.5,0,0,1,.193.219.513.513,0,0,1,.031.29A.5.5,0,0,1,651.251,853.776Z" transform="translate(32.675 89.935)"/></g></svg>