<svg xmlns="http://www.w3.org/2000/svg" width="367.688" height="367.529" viewBox="0 0 367.688 367.529"><defs><style>.a{fill:#001a43;}.b,.c,.d{fill-rule:evenodd;}.b{opacity:0.3;}.c{fill:#fff;}.d{fill:#d5d3ff;}</style></defs><rect class="a" width="367.481" height="367.482" rx="35" transform="translate(0 0)"/><path class="b" d="M75.388,693.052s58.02-4.015,69.836-23.079c1.418-7.562,31.482-35.929,36.867-50.889C207.615,548.186,74.723,546.7,74.723,546.7l52.064-52.6,181.679,136.85v95.57c0,13.61,2.539,27.588-10.017,40.892-11.262,11.934-26.739,10.555-41.424,10.555H166.642Z" transform="translate(59.013 -410.489)"/><g transform="translate(81.196 82.909)"><g transform="translate(-567.498 -761.834)"><path class="c" d="M631.959,953.009c-1.869,1.854-8.83,7.378-11.335,8.086l49.414.061,49.409-.061c-7.521-2.113-24.5-21.158-26.958-27.976a41.6,41.6,0,0,0,13.642,4.252l-.214.015c8.906,1.451,17.216,2.23,26.23.372,27.976-5.77,40.33-25.879,40.432-49.292a65.2,65.2,0,0,0-.8-10.908c-2.185-14.834-8.789-30.278-19.045-43.777q-1.329-1.749-2.744-3.5c-9.176-11.977-20.257-22.711-31.714-32.59-15.159-13.794-31.4-23.22-47.515-35.319l-.723-.54-.728.54c-16.111,12.1-32.356,21.525-47.51,35.319-11.463,9.879-22.543,20.613-31.719,32.59q-1.406,1.749-2.744,3.5c-10.251,13.5-16.861,28.949-19.04,43.777a64.634,64.634,0,0,0-.8,10.908c.1,23.414,12.45,43.523,40.432,49.292,4.6.947,15.322,1.782,21.723.249,6.737-.759,11.661-1.849,17.935-4.889-2.312,6.4-10.912,15.205-15.628,19.89Zm51.961-9.3-4.338,4.654a.989.989,0,0,1-.733.321H658.275a.5.5,0,0,1-.463-.3.513.513,0,0,1-.035-.29.483.483,0,0,1,.127-.255l4.333-4.654a1.042,1.042,0,0,1,.336-.239,1,1,0,0,1,.4-.082h20.567a.484.484,0,0,1,.28.076.53.53,0,0,1,.193.219.476.476,0,0,1,.031.291.482.482,0,0,1-.128.259Zm-4.338-9.37,4.328,4.654a.548.548,0,0,1,.132.259.475.475,0,0,1-.035.28.536.536,0,0,1-.188.224.474.474,0,0,1-.275.082H662.976a1,1,0,0,1-.4-.082,1.041,1.041,0,0,1-.336-.239L657.9,934.86a.505.505,0,0,1-.092-.545A.543.543,0,0,1,658,934.1a.5.5,0,0,1,.28-.082h20.573a1.068,1.068,0,0,1,.4.082,1.04,1.04,0,0,1,.336.239Zm-21.306-3.346h0a.5.5,0,0,1-.28-.081.482.482,0,0,1-.184-.219.506.506,0,0,1,.092-.545l4.333-4.654a1.117,1.117,0,0,1,.336-.239,1.089,1.089,0,0,1,.4-.082h20.567a.486.486,0,0,1,.28.082.471.471,0,0,1,.193.219.459.459,0,0,1,.031.285.465.465,0,0,1-.128.259l-4.338,4.654a1.044,1.044,0,0,1-.336.239.955.955,0,0,1-.4.081Zm11.763-108.967c20.017,11.544,72.518,52.679,52.266,79.8-16.978,19.437-45.051,13.1-51.543-7.857l-.738-2.266-.713,2.266c-6.492,20.959-34.489,26.942-51.461,7.5C597.613,874.335,650.026,833.568,670.038,822.023Z" transform="translate(0)"/><path class="d" d="M587.945,871.166h98.844c-6.635-2.444-19.7-16.163-24.8-23.943a21.694,21.694,0,0,1-2.159-4.023l.02.005V843.2l.021.005c39.6,8.163,48.279-35.691,30.767-59.4,7.251,14.849,4.114,34.092-19.243,37.473a29.033,29.033,0,0,1-33.822-18.938l-.194-.57-.015.056-.02-.056-.188.57a29.036,29.036,0,0,1-33.822,18.938c-23.358-3.381-26.495-22.625-19.243-37.473-17.512,23.7-8.835,67.558,30.767,59.4l.015-.005.005.005.016-.005a21.615,21.615,0,0,1-2.154,4.023c-5.1,7.781-18.169,21.5-24.8,23.943ZM625.6,841.057h0a.474.474,0,0,1-.275-.082.521.521,0,0,1-.189-.219.507.507,0,0,1-.035-.285.484.484,0,0,1,.127-.26l4.334-4.654a1.038,1.038,0,0,1,.336-.239,1,1,0,0,1,.4-.082h20.567a.523.523,0,0,1,.28.077.529.529,0,0,1,.193.219.514.514,0,0,1,.031.29.48.48,0,0,1-.128.26l-4.339,4.654a1.044,1.044,0,0,1-.336.239.969.969,0,0,1-.4.082Zm21.306,3.345,4.328,4.654a.467.467,0,0,1,.127.255.52.52,0,0,1-.03.291.562.562,0,0,1-.189.219.513.513,0,0,1-.275.081H630.3a1.1,1.1,0,0,1-.4-.081,1.044,1.044,0,0,1-.336-.239l-4.334-4.654a.505.505,0,0,1-.092-.545.521.521,0,0,1,.189-.219.475.475,0,0,1,.275-.081h20.567a1.053,1.053,0,0,1,.4.081,1.038,1.038,0,0,1,.336.239Zm4.339,9.37-4.339,4.654a1.128,1.128,0,0,1-.336.239,1.055,1.055,0,0,1-.4.081H625.6a.514.514,0,0,1-.275-.081.506.506,0,0,1-.189-.224.5.5,0,0,1-.035-.285.468.468,0,0,1,.127-.255l4.334-4.655a1.046,1.046,0,0,1,.336-.239,1,1,0,0,1,.4-.081h20.567a.446.446,0,0,1,.28.076.5.5,0,0,1,.193.219.514.514,0,0,1,.031.29A.5.5,0,0,1,651.248,853.772Z" transform="translate(32.674 89.929)"/></g></g></svg>