<svg xmlns="http://www.w3.org/2000/svg" width="270.446" height="262.841" viewBox="0 0 270.446 262.841"><defs><style>.a{fill:#fff;fill-rule:evenodd;}</style></defs><g transform="translate(-567.493 -761.834)"><path class="a" d="M652.5,1013.931c-2.464,2.444-11.643,9.73-14.947,10.663l65.161.08,65.155-.08c-9.918-2.787-32.305-27.9-35.549-36.892,5.265,2.552,11.584,4.976,17.99,5.607l-.282.02c11.744,1.914,22.7,2.941,34.588.491,36.892-7.608,53.182-34.125,53.316-65a85.984,85.984,0,0,0-1.054-14.384c-2.881-19.561-11.59-39.927-25.114-57.728q-1.752-2.307-3.619-4.613c-12.1-15.793-26.712-29.948-41.82-42.975-19.99-18.19-41.411-30.62-62.656-46.575l-.954-.711-.96.711c-21.246,15.955-42.666,28.384-62.65,46.575C623.991,822.147,609.38,836.3,597.279,852.1q-1.854,2.307-3.619,4.613c-13.517,17.808-22.233,38.174-25.107,57.728A85.242,85.242,0,0,0,567.5,928.82c.134,30.875,16.418,57.392,53.316,65,6.063,1.249,20.205,2.35,28.646.329,8.884-1,15.377-2.438,23.65-6.447-3.049,8.434-14.39,20.051-20.608,26.228Zm68.519-12.268L715.3,1007.8a1.3,1.3,0,0,1-.967.423H687.2a.655.655,0,0,1-.611-.4.677.677,0,0,1-.047-.383.637.637,0,0,1,.168-.336l5.714-6.137a1.374,1.374,0,0,1,.443-.316,1.313,1.313,0,0,1,.531-.108h27.121a.64.64,0,0,1,.369.1.7.7,0,0,1,.255.289.626.626,0,0,1,.041.383.636.636,0,0,1-.168.342ZM715.3,989.308l5.708,6.138a.723.723,0,0,1,.174.342.629.629,0,0,1-.047.37.707.707,0,0,1-.249.3.624.624,0,0,1-.362.108H693.4a1.321,1.321,0,0,1-.531-.108,1.374,1.374,0,0,1-.443-.316L686.715,990a.665.665,0,0,1-.121-.718.716.716,0,0,1,.242-.289.656.656,0,0,1,.369-.108h27.128a1.409,1.409,0,0,1,.524.108,1.371,1.371,0,0,1,.443.316ZM687.2,984.9h0a.656.656,0,0,1-.369-.107.635.635,0,0,1-.242-.288.667.667,0,0,1,.121-.719l5.714-6.137a1.475,1.475,0,0,1,.443-.316,1.436,1.436,0,0,1,.531-.108h27.121a.641.641,0,0,1,.369.108.622.622,0,0,1,.255.289.6.6,0,0,1,.041.376.614.614,0,0,1-.168.342l-5.721,6.137a1.373,1.373,0,0,1-.443.316,1.259,1.259,0,0,1-.524.107ZM702.716,841.2c26.4,15.223,95.627,69.465,68.922,105.235-22.388,25.631-59.407,17.278-67.968-10.361l-.974-2.988-.94,2.988c-8.561,27.638-45.48,35.528-67.86,9.884C607.211,910.186,676.327,856.427,702.716,841.2Z" transform="translate(0 0)"/><path class="a" d="M591.919,899H722.261c-8.749-3.223-25.973-21.313-32.7-31.573a28.613,28.613,0,0,1-2.847-5.3l.026.007v-.007l.027.007c52.215,10.764,63.664-47.065,40.571-78.323,9.562,19.581,5.426,44.956-25.375,49.415-17.371,3.714-37.154-4.411-44.6-24.973l-.255-.752-.02.074-.026-.074-.249.752c-7.447,20.561-27.236,28.686-44.6,24.973-30.8-4.459-34.937-29.834-25.376-49.415-23.093,31.258-11.65,89.087,40.571,78.323l.02-.007.007.007.02-.007a28.484,28.484,0,0,1-2.841,5.3c-6.728,10.26-23.959,28.35-32.7,31.573Zm49.659-39.7h0a.625.625,0,0,1-.363-.107.685.685,0,0,1-.249-.289.667.667,0,0,1-.047-.376.637.637,0,0,1,.168-.342l5.715-6.138a1.368,1.368,0,0,1,.443-.316,1.316,1.316,0,0,1,.531-.107H674.9a.691.691,0,0,1,.369.1.7.7,0,0,1,.255.289.676.676,0,0,1,.04.383.634.634,0,0,1-.168.343l-5.721,6.138a1.377,1.377,0,0,1-.443.315,1.277,1.277,0,0,1-.531.107Zm28.095,4.412,5.708,6.137a.615.615,0,0,1,.168.336.686.686,0,0,1-.04.383.739.739,0,0,1-.249.289.675.675,0,0,1-.362.107H647.775a1.44,1.44,0,0,1-.531-.107,1.374,1.374,0,0,1-.443-.316l-5.715-6.137a.666.666,0,0,1-.121-.719.685.685,0,0,1,.249-.289.626.626,0,0,1,.363-.107H668.7a1.385,1.385,0,0,1,.531.107,1.365,1.365,0,0,1,.443.316Zm5.721,12.355-5.721,6.138a1.492,1.492,0,0,1-.443.316,1.4,1.4,0,0,1-.531.107H641.577a.68.68,0,0,1-.363-.107.666.666,0,0,1-.249-.3.655.655,0,0,1-.047-.376.617.617,0,0,1,.168-.336l5.715-6.138a1.376,1.376,0,0,1,.443-.316,1.316,1.316,0,0,1,.531-.107H674.9a.587.587,0,0,1,.369.1.661.661,0,0,1,.255.289.676.676,0,0,1,.04.383A.658.658,0,0,1,675.393,876.067Z" transform="translate(45.63 125.59)"/></g></svg>